HIERARCHY
ROOT Hips
{
	OFFSET 0.0000 0.0000 0.0000
	CHANNELS 6 Xposition Yposition Zposition Zrotation Xrotation Yrotation
	JOINT Spine1
	{
		OFFSET -0.0137 5.0038 -0.0537
		CHANNELS 3 Zrotation Xrotation Yrotation
		JOINT Spine2
		{
			OFFSET -0.0000 7.1253 -0.0298
			CHANNELS 3 Zrotation Xrotation Yrotation
			JOINT Chest
			{
				OFFSET -0.0000 7.5501 -0.8160
				CHANNELS 3 Zrotation Xrotation Yrotation
				JOINT Neck1
				{
					OFFSET -0.1817 26.3113 -0.5533
					CHANNELS 3 Zrotation Xrotation Yrotation
					JOINT Neck2
					{
						OFFSET -0.0000 7.7094 2.3026
						CHANNELS 3 Zrotation Xrotation Yrotation
						JOINT Head
						{
							OFFSET -0.0000 6.1289 1.9537
							CHANNELS 3 Zrotation Xrotation Yrotation
							JOINT Jaw
							{
								OFFSET 0.0026 0.4756 3.0949
								CHANNELS 3 Zrotation Xrotation Yrotation
								End Site
								{
									OFFSET 0.0 1.0 0.0
								}
							}
							JOINT LeftEye
							{
								OFFSET 3.2064 5.3802 7.5869
								CHANNELS 3 Zrotation Xrotation Yrotation
								End Site
								{
									OFFSET 0.0 1.0 0.0
								}
							}
							JOINT RightEye
							{
								OFFSET -3.2224 5.3619 7.5582
								CHANNELS 3 Zrotation Xrotation Yrotation
								End Site
								{
									OFFSET 0.0 1.0 0.0
								}
							}
						}
					}
				}
				JOINT LeftShoulder
				{
					OFFSET 1.6217 23.2372 5.1134
					CHANNELS 3 Zrotation Xrotation Yrotation
					JOINT LeftArm
					{
						OFFSET 14.9198 0.0000 -5.5023
						CHANNELS 3 Zrotation Xrotation Yrotation
						JOINT LeftForeArm
						{
							OFFSET 28.7393 0.0000 -0.0026
							CHANNELS 3 Zrotation Xrotation Yrotation
							JOINT LeftHand
							{
								OFFSET 27.0940 -0.0000 0.0026
								CHANNELS 3 Zrotation Xrotation Yrotation
								JOINT LeftHandThumbEnd
								{
									OFFSET 12.2686 -3.2202 4.8331
									CHANNELS 3 Zrotation Xrotation Yrotation
									End Site
									{
										OFFSET 0.0 1.0 0.0
									}
								}
								JOINT LeftHandMiddleEnd
								{
									OFFSET 19.0120 -0.3129 -0.0340
									CHANNELS 3 Zrotation Xrotation Yrotation
									End Site
									{
										OFFSET 0.0 1.0 0.0
									}
								}
							}
						}
					}
				}
				JOINT RightShoulder
				{
					OFFSET -1.3801 23.1803 5.2142
					CHANNELS 3 Zrotation Xrotation Yrotation
					JOINT RightArm
					{
						OFFSET -15.0372 0.0000 -5.5456
						CHANNELS 3 Zrotation Xrotation Yrotation
						JOINT RightForeArm
						{
							OFFSET -28.7366 0.0000 -0.0026
							CHANNELS 3 Zrotation Xrotation Yrotation
							JOINT RightHand
							{
								OFFSET -27.1336 -0.0000 0.0026
								CHANNELS 3 Zrotation Xrotation Yrotation
								JOINT RightHandThumbEnd
								{
									OFFSET -12.2642 -3.2115 4.8040
									CHANNELS 3 Zrotation Xrotation Yrotation
									End Site
									{
										OFFSET 0.0 1.0 0.0
									}
								}
								JOINT RightHandMiddleEnd
								{
									OFFSET -19.0006 -0.3066 -0.0316
									CHANNELS 3 Zrotation Xrotation Yrotation
									End Site
									{
										OFFSET 0.0 1.0 0.0
									}
								}
							}
						}
					}
				}
			}
		}
	}
	JOINT LeftLeg
	{
		OFFSET 10.0432 -8.4345 2.5957
		CHANNELS 3 Zrotation Xrotation Yrotation
		JOINT LeftShin
		{
			OFFSET -0.0000 -43.2218 -0.8029
			CHANNELS 3 Zrotation Xrotation Yrotation
			JOINT LeftFoot
			{
				OFFSET 0.0000 -42.1551 -3.4815
				CHANNELS 3 Zrotation Xrotation Yrotation
				JOINT LeftToeBase
				{
					OFFSET 0.0000 -5.0595 13.2315
					CHANNELS 3 Zrotation Xrotation Yrotation
					End Site
					{
						OFFSET 0.0 1.0 0.0
					}
				}
			}
		}
	}
	JOINT RightLeg
	{
		OFFSET -10.0473 -8.2953 2.6203
		CHANNELS 3 Zrotation Xrotation Yrotation
		JOINT RightShin
		{
			OFFSET 0.0000 -43.3622 -0.8056
			CHANNELS 3 Zrotation Xrotation Yrotation
			JOINT RightFoot
			{
				OFFSET 0.0000 -42.1174 -3.4784
				CHANNELS 3 Zrotation Xrotation Yrotation
				JOINT RightToeBase
				{
					OFFSET -0.0000 -5.0796 13.2842
					CHANNELS 3 Zrotation Xrotation Yrotation
					End Site
					{
						OFFSET 0.0 1.0 0.0
					}
				}
			}
		}
	}
}
MOTION
Frames: 16
Frame Time: 0.033333
3.8232 100.8528 0.7253 -0.6304 0.0465 -0.1339 -3.1748 0.6674 0.1765 -1.0607 -4.9888 2.0145 -2.0272 9.8925 0.2680 -2.6392 3.5453 3.3288 -2.2780 -3.6702 -5.1211 6.5185 -18.6447 -12.9182 -0.0263 0.0193 -0.0911 0.5351 -10.5223 -3.9546 -0.5995 -10.5960 3.7861 -7.8309 11.9097 -4.9603 -34.9514 13.8543 -28.5086 0.0230 0.3297 -33.8361 5.3015 -8.6280 -4.1306 -15.0186 10.8565 15.6560 -60.6058 1.5905 1.5839 8.0714 13.7533 16.9934 57.1365 0.3522 13.4219 0.5272 -0.1641 63.5708 -11.7292 25.6345 7.0625 16.2024 7.4576 -16.9892 49.7369 -3.3674 -5.8707 3.1975 -3.0894 15.8567 0.0389 7.7175 -0.1396 -3.4197 -4.4070 3.0451 1.6493 0.1444 -1.9382 -8.0414 -3.2704 -26.0814 -0.1155 8.7260 0.1747 11.0216 -1.8349 -11.7114 -1.4111 -0.2246 1.0163
3.4003 100.8672 0.4665 -0.8349 0.3431 -1.8683 -3.1086 0.5258 0.2467 -1.0226 -5.0408 2.1205 -2.2429 9.8149 0.2694 -3.2881 3.6578 3.5418 -2.0793 -3.6484 -4.9849 5.9957 -19.1143 -12.7504 -0.0038 0.0249 0.0153 0.6108 -10.5213 -3.8460 -0.6302 -10.6004 3.8779 -7.2700 12.0144 -4.4099 -36.7952 18.5100 -25.6799 0.8016 0.4713 -30.8191 4.2147 -7.8342 -5.1246 -15.3219 10.8004 15.8616 -60.6698 1.6268 1.9963 6.2447 13.5788 16.4845 53.2488 -2.5097 18.6114 1.6326 -0.0736 77.7554 -10.3555 20.8855 7.7460 15.4453 7.7401 -16.8599 50.3850 -3.0244 -5.7829 3.6165 -3.7096 16.7393 0.0535 8.1363 -0.1547 -4.2937 -4.3134 3.6105 1.6350 0.2029 -1.8867 -7.9585 -3.0034 -23.4341 -0.0697 6.3405 0.1619 11.3350 -1.5217 -10.9795 -1.4020 -0.3727 1.1116
2.9706 100.9262 0.1355 -0.8892 0.8244 -3.5711 -2.9814 0.3121 0.3285 -0.9851 -5.0974 2.1707 -2.4152 9.8434 0.1595 -3.9428 3.7831 3.8871 -1.9863 -3.7410 -4.8880 5.4429 -19.3458 -12.3389 -0.0038 0.0474 0.0446 0.6513 -10.5587 -3.8324 -0.6720 -10.6331 3.9152 -6.3933 12.4533 -3.8213 -39.7366 20.9730 -21.9664 0.7615 0.4473 -28.8086 2.9010 -7.5785 -5.8644 -15.5743 10.8312 15.9947 -60.9354 1.7802 2.1657 3.3440 13.3114 16.0902 48.6097 -4.3731 24.5316 2.0932 0.3668 91.6870 -9.0192 13.3456 9.1963 15.3984 7.9708 -16.4258 52.0108 -2.6750 -5.4214 3.7986 -4.1954 17.7649 0.0578 7.8897 -0.1914 -4.9391 -3.6913 4.1531 1.6239 0.0789 -1.8583 -7.9248 -3.6669 -20.7122 -0.0148 5.1538 0.1631 12.3264 -0.5935 -9.6243 -1.3969 -0.8197 1.1423
2.4989 100.9442 -0.1832 -1.0789 1.3420 -4.7535 -2.6734 0.1434 0.3548 -0.9391 -5.1894 2.2574 -2.4898 9.7969 -0.0092 -4.2600 4.1102 4.2390 -1.9678 -3.7366 -4.8764 4.7542 -19.1735 -11.7132 -0.0005 0.0549 0.0750 0.6904 -10.5848 -3.8165 -0.7048 -10.6686 3.9520 -5.3880 12.9128 -3.2072 -43.2807 22.3834 -18.8444 0.6977 0.4194 -27.0669 1.1626 -8.6147 -6.1073 -15.8197 10.8696 16.0792 -61.2213 1.9341 2.3417 0.1722 12.8886 15.6030 43.3075 -5.7111 29.6855 2.2934 1.1884 104.6496 -9.9935 5.2888 10.1666 15.8742 7.9399 -16.0782 52.6974 -2.7015 -5.1801 4.1569 -4.8039 18.6246 0.0443 7.6611 -0.2408 -5.5221 -3.1580 4.3721 1.6239 -0.0250 -1.9272 -7.5834 -4.2558 -18.2876 0.0746 4.2243 0.0836 12.2003 0.8832 -8.7008 -1.3884 -1.0637 1.1235
1.9526 100.9035 -0.4198 -1.1739 1.6419 -5.1313 -2.3124 -0.0464 0.3491 -0.8600 -5.2287 2.3243 -2.7159 9.7427 -0.1507 -4.0377 4.5425 4.2507 -1.9969 -3.7795 -4.9910 4.1749 -18.3867 -10.9896 -0.0165 0.0366 0.0128 0.6478 -10.5871 -3.8753 -0.6937 -10.6611 3.8846 -4.4458 13.4022 -2.6222 -46.5349 23.2561 -16.4455 0.4640 0.3334 -25.7591 -0.8165 -10.3673 -6.1209 -16.1405 10.9266 16.0131 -61.3693 2.0491 2.5309 -2.3293 12.4118 14.8560 37.3604 -6.3508 33.9231 1.6813 1.6848 116.3661 -12.7032 -1.5692 10.8226 15.7550 7.7703 -15.7554 52.0952 -2.7167 -4.9616 4.5172 -5.2107 19.0640 0.0416 7.4697 -0.3041 -5.8687 -2.8129 4.1758 1.6332 -0.1688 -1.9337 -7.1744 -4.4075 -17.1333 0.0533 3.9543 0.0556 11.9274 0.7849 -8.2416 -1.3851 -1.0401 1.1527
1.3251 100.8264 -0.5539 -0.9850 1.6665 -4.7853 -2.0341 -0.1303 0.3515 -0.7730 -5.2531 2.3123 -2.9330 9.6757 -0.1518 -3.5214 5.0985 4.1329 -2.1180 -3.7598 -5.3547 3.7665 -17.6084 -10.6370 -0.0182 0.0361 -0.0283 0.6322 -10.5857 -3.9176 -0.6812 -10.6507 3.8410 -3.7575 13.9166 -2.1467 -49.3469 23.7023 -15.1749 0.0718 0.1163 -24.5157 -3.1048 -12.8156 -5.4296 -16.4246 11.0410 15.8803 -61.6473 2.0780 2.5544 -4.2404 12.0379 13.9364 31.1184 -7.0357 36.5052 1.3300 1.8204 126.5386 -16.2175 -5.7967 10.9933 15.4090 7.5740 -15.7454 51.0264 -2.9232 -4.8682 4.7356 -5.4701 19.1544 0.0215 7.6966 -0.3631 -6.1966 -2.6494 3.5306 1.6374 -0.1948 -1.9531 -7.0757 -4.3386 -17.1998 0.0746 4.0234 0.0157 11.7338 0.0900 -7.9068 -1.3915 -0.9799 1.1297
0.6391 100.6582 -0.5813 -0.6027 1.4277 -3.7496 -1.7500 -0.1343 0.3516 -0.7117 -5.2319 2.2682 -3.1183 9.6288 -0.0999 -2.9045 5.6625 3.9378 -2.2191 -3.7424 -5.7744 3.4192 -16.9093 -10.6713 -0.0223 0.0341 -0.0857 0.6207 -10.5458 -3.9702 -0.6771 -10.6005 3.7776 -3.3074 14.2037 -1.7729 -51.5997 23.4657 -14.3994 -0.3790 -0.0903 -23.4005 -5.1524 -14.9235 -4.3549 -16.5282 11.2379 15.8485 -61.9029 2.1274 2.5926 -5.4370 11.8703 13.1048 25.1242 -7.8949 37.1020 1.1600 1.7619 134.3330 -19.2199 -7.7729 11.0300 15.0715 7.3933 -15.8974 50.2206 -3.1576 -4.8736 4.8933 -5.6163 18.7597 0.0110 8.2735 -0.3702 -6.5304 -2.6910 2.5095 1.6299 -0.2897 -1.9687 -7.2307 -3.9154 -17.9995 0.0929 4.1217 -0.0067 11.5735 -0.9583 -7.8482 -1.3977 -0.8935 1.1051
-0.0949 100.5432 -0.5273 -0.3364 1.0555 -2.2572 -1.3282 -0.1676 0.3271 -0.6524 -5.1970 2.2829 -3.1757 9.6040 -0.0995 -2.3586 6.1182 3.7842 -2.2953 -3.7237 -6.1770 3.1051 -16.3574 -10.8129 -0.0204 0.0334 -0.1063 0.6156 -10.4851 -3.9815 -0.6667 -10.5354 3.7467 -3.1630 14.3569 -1.3940 -53.3617 22.7522 -13.9816 -0.4900 -0.1321 -22.6827 -6.5439 -16.7326 -3.4185 -16.4728 11.3961 15.9209 -61.9667 2.1179 2.6632 -5.8327 11.9406 12.6239 20.7282 -8.8994 35.2314 1.0018 1.5354 138.7534 -21.1846 -8.5306 10.7940 14.9143 7.2887 -16.0690 49.8310 -3.3331 -4.9667 5.2318 -5.6408 18.0413 0.0048 8.7034 -0.3880 -6.9431 -2.6315 1.4488 1.6216 -0.3946 -2.0016 -7.2559 -3.1133 -19.0994 0.0944 4.0309 -0.0045 11.3308 -1.6660 -8.3044 -1.4011 -0.8504 1.0806
-0.8495 100.5108 -0.4137 -0.2103 0.6809 -0.4252 -0.8866 -0.2465 0.2870 -0.5941 -5.1903 2.2938 -3.1031 9.5868 -0.1758 -1.9004 6.4434 3.6461 -2.3455 -3.6933 -6.5093 2.9380 -15.8753 -11.0839 -0.0149 0.0277 -0.0804 0.6190 -10.4383 -3.9468 -0.6571 -10.4850 3.7625 -3.1189 14.4900 -1.0498 -54.6304 21.9774 -13.9602 -0.3985 -0.1007 -22.6877 -7.3184 -18.1285 -2.8903 -16.3135 11.4869 16.0056 -61.9950 2.0516 2.6969 -5.3514 12.3193 12.4408 17.7333 -9.4831 31.5393 0.7627 1.2367 140.3440 -22.9159 -9.1489 10.2297 14.9880 7.2471 -16.1511 49.8377 -3.3947 -5.1149 5.6901 -5.6044 17.1154 -0.0111 8.8421 -0.4170 -7.4170 -2.3983 0.4616 1.6193 -0.4570 -2.0049 -7.1336 -1.9969 -20.0140 0.0951 3.6362 -0.0003 11.0221 -2.1140 -9.2904 -1.3993 -0.8569 1.0737
-1.6127 100.5100 -0.2858 -0.0985 0.3486 1.7797 -0.5301 -0.4041 0.2217 -0.5535 -5.2033 2.2715 -2.9785 9.5759 -0.3416 -1.4456 6.6182 3.4854 -2.3994 -3.6718 -6.8103 2.8180 -15.4135 -11.4567 -0.0097 0.0173 -0.0412 0.6194 -10.3964 -3.9028 -0.6452 -10.4454 3.7953 -3.1030 14.6066 -0.8391 -55.3890 21.2529 -14.3618 -0.3899 -0.0912 -23.2725 -7.7573 -18.9682 -2.7769 -16.1651 11.4453 16.0151 -61.9377 1.9735 2.6969 -4.0034 12.8853 12.5037 15.4876 -9.7821 26.7274 0.6969 0.9949 140.1488 -24.6262 -10.1278 9.4977 15.1645 7.1907 -16.1534 50.0100 -3.3594 -5.1663 6.1108 -5.5307 16.0020 -0.0197 8.6803 -0.4167 -7.8485 -1.9791 -0.6029 1.6272 -0.4419 -1.9874 -6.9882 -0.7163 -20.8654 0.0855 2.9960 -0.0159 10.5564 -2.4216 -10.6790 -1.4003 -0.8159 1.0505
-2.3944 100.4965 -0.1852 0.0093 0.0779 4.3270 -0.2323 -0.6212 0.2153 -0.5281 -5.2645 2.1393 -2.8220 9.6460 -0.6112 -1.0492 6.5794 3.3515 -2.4310 -3.6695 -7.1273 2.6205 -15.0371 -11.8874 -0.0062 0.0071 -0.0305 0.6167 -10.3695 -3.8911 -0.6337 -10.4207 3.8053 -3.2154 14.6432 -0.8965 -55.5076 20.8320 -15.3019 -0.5428 -0.1133 -24.5020 -7.8713 -18.8842 -3.0493 -16.0583 11.3167 15.9979 -61.7623 1.9164 2.6963 -1.7861 13.6670 12.6785 13.0265 -9.9431 21.7191 0.6603 0.8243 139.0953 -26.2211 -11.2889 9.1330 15.3285 7.1684 -16.1625 50.3763 -3.2441 -5.1918 6.4931 -5.6196 14.7867 -0.0320 8.5125 -0.3995 -8.2064 -1.4544 -1.8811 1.6364 -0.4367 -1.9696 -6.7757 0.4928 -21.7829 0.0630 2.4256 -0.0494 9.9071 -2.7355 -12.3554 -1.4057 -0.6926 1.0170
-3.1856 100.4119 -0.1636 0.0439 -0.2212 6.9246 0.0645 -0.7902 0.2132 -0.5054 -5.3087 1.9205 -2.6393 9.7813 -0.9309 -0.7191 6.3019 3.2378 -2.4553 -3.6798 -7.4766 2.3520 -14.8952 -12.2166 -0.0079 0.0106 -0.0481 0.6097 -10.3443 -3.9080 -0.6291 -10.3913 3.7893 -3.4233 14.5790 -1.2247 -54.9667 20.8217 -16.6566 -0.8678 -0.1660 -26.4588 -7.3786 -17.9673 -3.7422 -15.9789 11.1878 16.0178 -61.4923 1.9219 2.6492 0.7140 14.5046 12.7885 10.2522 -10.0822 17.5486 0.4508 0.7695 137.8451 -27.4337 -12.2540 9.3970 15.3514 7.1911 -16.2323 50.7289 -3.1978 -5.2731 6.9237 -5.9186 13.6226 -0.0471 8.6471 -0.3690 -8.5779 -1.0937 -3.2952 1.6409 -0.4391 -1.9786 -6.4901 1.5633 -22.8564 0.0364 2.1256 -0.0824 9.2546 -3.2419 -13.9606 -1.4104 -0.5695 1.0004
-3.9458 100.2678 -0.1368 -0.0352 -0.6658 9.4362 0.3665 -0.8278 0.1773 -0.4767 -5.3068 1.6580 -2.4201 9.9781 -1.2332 -0.4048 5.8675 3.0705 -2.5400 -3.6850 -7.7856 2.0902 -14.9781 -12.5325 -0.0132 0.0222 -0.0721 0.6054 -10.3154 -3.9284 -0.6343 -10.3591 3.7667 -3.6439 14.4878 -1.7370 -53.7566 21.3144 -18.3773 -1.2484 -0.2325 -29.2787 -6.0939 -16.1114 -4.9267 -15.8983 11.0773 16.1027 -61.1719 1.9398 2.5643 2.9985 15.2464 12.8087 7.6703 -10.3077 14.2190 0.0693 0.8287 136.6732 -28.2436 -13.2800 10.2503 15.1980 7.2081 -16.3155 50.8718 -3.2034 -5.3619 7.4911 -6.2970 12.6207 -0.0628 9.1224 -0.3498 -9.0306 -0.9802 -4.7765 1.6338 -0.4609 -2.0012 -6.1543 2.6142 -24.0229 0.0044 2.0794 -0.0790 8.6937 -3.8789 -15.3662 -1.4088 -0.4829 1.0017
-4.7180 100.1355 -0.1056 -0.1588 -1.2376 11.6275 0.6142 -0.7999 0.0801 -0.4555 -5.2819 1.4729 -2.1918 10.1937 -1.4859 -0.1069 5.4891 2.8880 -2.6608 -3.6937 -8.0425 1.8888 -15.1381 -12.8230 -0.0166 0.0252 -0.0730 0.6099 -10.3120 -3.9280 -0.6445 -10.3581 3.7690 -3.7676 14.4979 -2.2041 -52.0128 22.1559 -20.0894 -1.3638 -0.2628 -33.0778 -4.3600 -13.3859 -6.4623 -15.7716 11.0118 16.2512 -60.9042 1.9347 2.5538 4.4951 15.8462 12.7535 6.0691 -10.7136 11.6167 -0.2687 0.9704 135.5299 -28.9107 -14.5021 11.1431 15.0350 7.2328 -16.3817 50.8742 -3.2358 -5.3962 8.0998 -6.5985 11.9407 -0.0757 9.7262 -0.3668 -9.5311 -0.9473 -6.1559 1.6266 -0.5269 -2.0219 -5.8510 3.6612 -25.0327 -0.0347 2.1629 -0.0600 8.1891 -4.4653 -16.5505 -1.4000 -0.4533 1.0108
-5.3884 100.0484 -0.0317 -0.1964 -1.7903 13.2973 0.7570 -0.8045 0.0077 -0.4585 -5.2734 1.3737 -2.0365 10.3133 -1.6309 0.0788 5.2936 2.7426 -2.7526 -3.6953 -8.1975 1.7512 -15.1185 -12.9692 -0.0140 0.0199 -0.0557 0.6135 -10.3041 -3.9117 -0.6418 -10.3550 3.7890 -3.7556 14.5813 -2.5027 -49.8851 22.8947 -20.9346 -1.1961 -0.2545 -37.4987 -2.7199 -10.9082 -8.0327 -15.6125 10.9602 16.3889 -60.6892 1.8741 2.5514 5.1102 16.2700 12.6732 5.8183 -11.0640 9.4954 -0.3509 1.1057 134.3209 -29.5017 -15.5693 11.7845 14.9957 7.2615 -16.3869 50.9197 -3.2096 -5.3559 8.5689 -6.7236 11.5359 -0.1021 10.1770 -0.4222 -9.9182 -0.7991 -7.2763 1.6251 -0.6526 -2.0111 -5.6717 4.5306 -25.7387 -0.0540 2.3141 -0.0346 7.7176 -4.8873 -17.4817 -1.3919 -0.4406 1.0258
-5.9253 99.9786 0.0774 -0.1728 -2.2932 14.4901 0.8585 -0.8198 -0.0462 -0.4575 -5.2849 1.3170 -1.9636 10.2724 -1.6618 0.0720 5.2731 2.7299 -2.8275 -3.6969 -8.3385 1.6471 -14.9542 -13.0092 -0.0113 0.0136 -0.0432 0.6126 -10.2957 -3.9007 -0.6349 -10.3421 3.8040 -3.7486 14.6165 -2.6984 -47.4517 23.3184 -20.5080 -0.8704 -0.1834 -41.8745 -1.2927 -9.0383 -9.5013 -15.4193 10.9798 16.4894 -60.5676 1.8026 2.5368 5.1365 16.5514 12.5724 6.3709 -11.3023 7.6427 -0.3693 1.1843 133.1647 -30.1672 -16.3649 12.3623 15.0412 7.2507 -16.3602 50.9425 -3.1975 -5.3346 8.9203 -6.6663 11.2539 -0.1297 10.4706 -0.4826 -10.2133 -0.6590 -8.0209 1.6317 -0.7665 -1.9847 -5.6186 5.2736 -26.2656 -0.0568 2.4301 -0.0256 7.3423 -5.2467 -18.1078 -1.3896 -0.3603 1.0364
